<svg width="1078" height="1316" fill="none" xmlns="http://www.w3.org/2000/svg"><path fill-rule="evenodd" clip-rule="evenodd" d="M196.4 261.3l-56.5 89-71.7-45.6 128.2-43.4z" fill="#fff"/><path clip-rule="evenodd" d="M321.4 1187.3l-77-56.7 45.8-62 31.2 118.7zM781.5 638l51.2 24-21 36-30.2-60zM189.2 220.2l50.1 13-10.1 39.2-40-52.2z" stroke="#E3EAF8"/><path opacity=".6" fill-rule="evenodd" clip-rule="evenodd" d="M62.7 201.4l88.7 22.5-23.6 92.6-65.1-115.1z" fill="#DAE1F1"/><path fill-rule="evenodd" clip-rule="evenodd" d="M384 1070.1l-26 78.9-82.3-27.2 108.3-51.7z" fill="#fff"/><path opacity=".6" fill-rule="evenodd" clip-rule="evenodd" d="M944.8 655.9l63.2 67.4-78.6 59.1 15.4-126.5z" fill="#DAE1F1"/><path fill-rule="evenodd" clip-rule="evenodd" d="M972 685l-40.3 65.8-76.8-37.6 117-28.3z" fill="#fff"/><path d="M690.6 170.6l3.9 2.1a34.4 34.4 0 0113.2 46.8l-15.7 28a34.4 34.4 0 01-46.8 13.2l-3.9-2.1a34.4 34.4 0 01-13.2-46.8l15.7-28a34.4 34.4 0 0146.8-13.2z" fill="#AE9AD9"/><path d="M648.4 233l22.3 12.3-5.8 10.4c-2.3 4.1-9.1 4.7-15.3 1.3-6.2-3.4-9.3-9.5-7-13.7l5.8-10.4z" fill="#F0A79E"/><path d="M694.7 185c4.8-5.3 3.1-20.6-15-18-18.1 2.7-43.1 47-43.1 47s7.9 4 20.3-1.1c12.4-5.2 37.8-28 37.8-28z" fill="#4E40B5"/><path d="M691.4 181.5c21 11.7 11 30 2.4 44l-5.3.4-16.6-9.2-16.6-9.2-2.3-4.7c7.2-14.7 17.4-33 38.4-21.3z" fill="#5546C5"/><path d="M653 202.8l2.4 2.5c10.5-19 19.2-18.7 29.8-12.8 12.4 6.9 16 12.6 5 32.2 1.2.1 2.4.4 3.6.7.6.3 1.3 2.7-3.3 9-4.5 6.2-7.4 5.3-8.7 4.3-8.2 9.4-19.2 13.4-27.1 9-8-4.4-10.5-15.8-6.8-27.7-1.6-.7-3.6-2.7-.8-9.7 2.8-7.2 5.3-7.9 5.9-7.5z" fill="#F5B1A8"/><path d="M685.2 192.5s-11.6 21.4 5 32.2c8-9.9 8.9-14.8 8.9-14.8l.3-12.4-13.5-8.3-.7 3.3z" fill="#5546C5"/><path d="M685.6 192.7s-12.3 21-30.2 12.6c4.2-11.9 8-15.1 8-15.1l10.4-6.8 14.3 7-2.5 2.3z" fill="#5546C5"/><path d="M655.1 102.1l222.2-.1.2 311.5-222.2.2-.2-311.6z" fill="#F8F1FC"/><path d="M806.8 122.5h15.5c19 0 34.5 15.4 34.5 34.4v47.4c0 19-15.4 34.5-34.4 34.5h-15.6c-19 0-34.4-15.4-34.4-34.4V157c0-19 15.4-34.5 34.4-34.5z" fill="#AE9AD9"/><path d="M814.5 131c27.8 0 27.8 23.9 27 42.8l-5 3.4h-43.8l-5-3.4c-1-18.9-.9-42.9 26.8-42.9z" fill="#5546C5"/><path d="M799.9 206.8h29.4v13.6c0 5.4-6.6 9.9-14.7 9.9s-14.7-4.4-14.7-10v-13.5z" fill="#F0A79E"/><path d="M787.7 173.8l3.9 1.2c0-25.1 8.8-29.6 22.8-29.6 16.4 0 23 3.8 23.1 29.6 1.3-.5 2.6-.9 4-1.2.7 0 2.8 2 1.7 10.9-1.1 8.8-4.5 9.6-6.4 9.2-3 14-11.8 24.1-22.3 24.2-10.5 0-19.4-10.2-22.3-24.1-2 .2-5.2-.8-6.3-9.4-1.1-8.7 1-10.8 1.8-10.8z" fill="#F5B1A8"/><path d="M802.7 147.3c3.2 2.6 27 15.4 34 15.4-9-5.8-8.6-6.8-8.6-6.8l9 5.4s0-13.8-8-17c-7.9-3-27-3.5-27-3.5l-2.2 6 2.8.5z" fill="#5546C5"/><path d="M678.3 132.2h67.5c1.8 0 3.2 1.4 3.2 3.1v.3c0 1.7-1.4 3.2-3.2 3.2h-67.5a3.2 3.2 0 01-3.2-3.2v-.2c0-1.8 1.4-3.2 3.2-3.2zM678.3 151.8h67.5c1.8 0 3.2 1.4 3.2 3.2v.2c0 1.8-1.4 3.2-3.2 3.2h-67.5a3.2 3.2 0 01-3.2-3.1v-.3c0-1.7 1.4-3.2 3.2-3.2zM678.3 171.5h67.5c1.8 0 3.3 1.4 3.3 3.1v.2c0 1.8-1.5 3.2-3.3 3.3h-67.5a3.2 3.2 0 01-3.2-3.2v-.2c0-1.8 1.4-3.2 3.2-3.2z" fill="#AE9AD9"/><path d="M680 257h171c1.7 0 3.1 1.4 3.1 3.2v.2c0 1.7-1.4 3.2-3.2 3.2l-171 .1a3.2 3.2 0 01-3.2-3.2v-.2c0-1.8 1.5-3.2 3.2-3.2zM680 279h171c1.7 0 3.1 1.3 3.1 3.1v.2c0 1.8-1.4 3.2-3.2 3.2l-171 .1a3.2 3.2 0 01-3.2-3.2v-.2c0-1.7 1.5-3.2 3.2-3.2zM751 301l100-.2c1.7 0 3.2 1.5 3.2 3.2v.3c0 1.7-1.5 3.2-3.2 3.2H751a3.2 3.2 0 01-3.2-3.2v-.2c0-1.8 1.4-3.2 3.2-3.2zM680.3 326.9l171-.2c1.8 0 3.2 1.5 3.2 3.2v.3c0 1.7-1.4 3.2-3.2 3.2h-171a3.2 3.2 0 01-3.2-3.1v-.2c0-1.8 1.4-3.2 3.2-3.2zM751.3 348.7h100c1.8 0 3.2 1.4 3.2 3.2v.2c0 1.8-1.4 3.2-3.2 3.2h-100a3.2 3.2 0 01-3.2-3.1v-.3c0-1.7 1.5-3.2 3.2-3.2z" fill="#C9C3CC"/><path opacity=".6" d="M605.3 69.3l327.4-.2a4 4 0 014 4l.3 453.4a4 4 0 01-4 4l-327.4.3a4 4 0 01-4-4l-.3-453.5a4 4 0 014-4z" fill="#DAE1F1"/><path d="M613.5 75.8l312.2-.2c2 0 3.6 1.5 3.6 3.5l.3 440.6c0 2-1.6 3.5-3.6 3.5l-312.2.3c-2 0-3.6-1.6-3.6-3.6L610 79.3c0-2 1.6-3.5 3.6-3.5z" fill="#fff"/><path opacity=".6" d="M641.3 119l78-.1c1.5 0 2.7 1.5 2.7 3.4v2.7c0 1.9-1.2 3.4-2.6 3.4h-78c-1.6 0-2.8-1.4-2.8-3.3v-2.7c0-2 1.2-3.4 2.7-3.4zM641.3 147.2h78c1.6 0 2.8 1.4 2.8 3.3v2.7c0 2-1.2 3.4-2.7 3.4l-78 .1c-1.6 0-2.8-1.5-2.8-3.4v-2.7c0-1.9 1.2-3.4 2.7-3.4zM641.3 175.4h78c1.6 0 2.8 1.5 2.8 3.4v2.7c0 1.8-1.2 3.4-2.7 3.4h-78c-1.5 0-2.7-1.5-2.7-3.4v-2.7c0-1.8 1.2-3.4 2.6-3.4zM644.4 308l248.1-.2a3.4 3.4 0 003.4-3.4v-2.7a3.4 3.4 0 00-3.4-3.4l-248.1.1a3.4 3.4 0 00-3.4 3.4v2.7a3.4 3.4 0 003.4 3.4zM644.4 277.6l248.1-.1a3.4 3.4 0 003.4-3.4v-2.7a3.4 3.4 0 00-3.4-3.4l-248.1.1a3.4 3.4 0 00-3.4 3.4v2.7a3.4 3.4 0 003.4 3.4zM644.2 327.5l247.7 1c1.8 0 3.4 1.5 3.3 3.4v2.7c0 1.8-1.5 3.4-3.4 3.4l-247.7-1a3.4 3.4 0 01-3.4-3.4V331c0-1.8 1.6-3.4 3.5-3.4zM746.5 361.4h146c2 0 3.5 1.5 3.5 3.3v2.7c0 2-1.5 3.4-3.4 3.4l-146 .1a3.4 3.4 0 01-3.5-3.4v-2.7c0-1.8 1.5-3.4 3.4-3.4zM645 398.7l248-.2c2 0 3.5 1.6 3.5 3.5v2.6c0 2-1.5 3.5-3.4 3.5l-248.1.1a3.4 3.4 0 01-3.5-3.4v-2.7c0-1.9 1.6-3.4 3.4-3.4zM747 430.2l146.1-.1c1.9 0 3.4 1.5 3.4 3.4v2.7c0 1.9-1.5 3.4-3.4 3.4h-146a3.4 3.4 0 01-3.5-3.3v-2.7c0-1.9 1.6-3.4 3.4-3.4z" fill="#DAE1F1"/><ellipse opacity=".6" rx="67.4" ry="65.6" transform="matrix(-1 0 0 1 831 165.8)" fill="#DAE1F1"/><mask id="a" maskUnits="userSpaceOnUse" x="763" y="100" width="136" height="132"><ellipse rx="67.4" ry="65.6" transform="matrix(-1 0 0 1 831 165.8)" fill="#C5D4E3"/></mask><g mask="url(#a)" fill-rule="evenodd" clip-rule="evenodd"><path d="M820.5 118.6s-7.3.2-9 4.1c-1.6 4-6.7 3.4-6.6 8.5 0 5.2-6.4 3-4.4 8.4 1.3 3.4-4 7-1.5 10.5 3.2 4.4-1 7.7 3.7 10.2 4.6 2.5-1 8.1 3.8 10 4.8 1.7 3.4 6.2 8.2 7.5 5.8 1.5 5 7.3 9.6 4.4 4.7-2.9 6.5 6 12.4.7 3.6-3.3 8.4 2.6 11.2-3.4 3-6.3 10.1-2.7 10.1-8.6 0-3.9 8-3.5 5.1-11-1-2.7 7.8-5.4 2.8-11-2.3-2.5 4-8.4-2.5-12.2-3.8-2.2-.6-9.7-7.7-11.8-4.6-1.4-3.8-7.8-10.3-6.3-4.9 1-5.7-5.7-10.9-2.5s-6.3-4.6-14 2.5z" fill="#141F39"/><path d="M839 166.9s-.5 11 0 13c.4 2 5 3.4 9.6 5.8 0 0-6 9-17.6 8.8-11.7-.3-14.6-6.9-16.5-9.8 0 0 8.9-.6 9.1-4.8.2-4.2 0-13 0-13H839z" fill="#FFD8C4"/><path d="M831.4 178.7c-3.7 0-6.3-2.7-7.7-4.9v-7h15.2l-.1 6.8c-1.3 2.3-3.6 5-7.4 5z" fill="#E8BEA8"/><path d="M813.6 146.8c.1 18.2 5 27.3 16.8 28.2 11.8 1 18-5.7 21.2-25.1 2.4-14.4-5.3-24-17-25-11.8-.8-21 6.8-21 22z" fill="#FFD8C4"/><path d="M850.5 155.5s.2-16.9-6.1-21.3c-5.5-3.8-20.3-3.2-24.7 2-4.7 5.6-5 21.3-5 21.3s-7.6-7.4-3.8-21.3c2.4-8.7 26.9-29.1 42.7-2.1 5 13.5-3.1 21.4-3.1 21.4z" fill="#233143"/><path d="M851.6 146.3s1.3-20.2-20-18.1c-21.1 2-18 21.9-18 21.9s-7.8-24 17.6-26.2c25.2-2.2 20.4 22.4 20.4 22.4z" fill="#00D28F"/><path d="M848.6 156.3s1.7-2.5 5-1.2c3.2 1.2.8 9.7-2.6 10.3-3.3.7-4.2-3.8-4.2-3.8l1.8-5.3zM817.6 159.3s-.2 3-3.7 3.4c-3.4.5-5.5-8-3-10.3 2.7-2.1 5.7 1.4 5.7 1.4l1 5.5z" fill="#FFD8C4"/><path opacity=".7" d="M881 226.3c-.7-2.3-17.4-33.6-25.4-36.8 0 0-3.4 12.1 3.4 27.7 0 0 3.2 8 6.2 11.9l15.8-2.8zM783.6 225c.7-2.3 17.8-33.3 25.8-36.4 0 0 3.2 12.2-3.7 27.7 0 0-3.3 8-6.4 11.7l-15.7-3z" fill="#00D28F"/><path opacity=".7" d="M856.1 230.6c.7-11.3 1.5-40.6 1.5-40.6-4-3-14.6-7.4-14.6-7.4s0 7.2-10.8 7.2-10.8-7.4-10.8-7.4c-9 .7-13.6 7.6-13.6 7.6.4 4.9-2 40.7-1.7 50.3l50-9.7z" fill="#00D28F"/></g><path fill-rule="evenodd" clip-rule="evenodd" d="M750.5 368.3c8.8-8.1 13-21 12.5-38.5-.7-26.3 13-57.3 22.3-59 6.2-1.3 6 8.1-.4 28.1 10.4-7.3 17.6-10.8 21.7-10.7 6.2.2 16-4.2 19.9.8 3.9 5 5.3 1.3 8.4 5.2 3 3.8-4.4 12.2-9.7 19.7-5.3 7.4-16.8 2-19.6 34.4C804.4 362.8 665 490.1 606 536c-40.9 31.8 53-33.7 22.7-17.3-30.2 16.4 6.3 30-10.3 17.9-16.6-12-30.6-37.2-17.6-55.1 8.5-11.7-4.6-90 8.9-22.4 7 35.6-61.8 8.3-47.2-2.3 9.1-6.6 126.4-51.4 188.1-88.4z" fill="#F1BE91"/><path opacity=".6" d="M556.4 1315.1c133.5 0 241.7-9 241.7-20s-108.2-20-241.7-20c-133.4 0-241.6 9-241.6 20s108.1 20 241.6 20z" fill="#CDD7ED"/><path fill-rule="evenodd" clip-rule="evenodd" d="M506.4 571.4l71.6 47.8 116.8-173.8-71.7-47.8c-5.9-4-14-2.4-18 3.5L502.9 553.5c-4 5.9-2.4 13.9 3.6 17.9z" fill="#FFA617"/><path fill-rule="evenodd" clip-rule="evenodd" d="M513.7 576.3l57.2 38.2c4 2.6 9.3 1.6 11.9-2.4l102-151.8c2.6-3.9 1.6-9.2-2.4-11.8l-57.1-38.2a8.6 8.6 0 00-12 2.4l-102 151.7a8.5 8.5 0 002.4 11.9z" fill="#fff"/><path fill-rule="evenodd" clip-rule="evenodd" d="M606.3 474.3l33-49.1a14 14 0 0119.4-3.8l91 60.7a14 14 0 013.9 19.4L652.4 652a14 14 0 01-19.5 3.8l-126.3-84.4c-6.1-4-7.7-12.2-3.7-18.2l46.4-69.1c2.9-4.2 7.9-6.4 13-5.7l25.8 3.8c7.1 1 14.2-2 18.2-8z" fill="#B4C3E4"/><path fill-rule="evenodd" clip-rule="evenodd" d="M630.1 653.9l1.7 1.1 116.7-173.6-1.7-1.1L630 653.9z" fill="#fff"/><path fill-rule="evenodd" clip-rule="evenodd" d="M655 437.4l36.3 24.2c2.5 1.7 6 1 7.6-1.5 1.7-2.5 1-5.9-1.5-7.6l-36.2-24.2c-2.5-1.6-6-1-7.6 1.5a5.5 5.5 0 001.5 7.6zM705.3 471l7.2 4.8a5.5 5.5 0 106-9l-7.1-5c-2.5-1.6-6-1-7.6 1.6a5.5 5.5 0 001.5 7.5z" fill="#F2F4F9"/><path fill-rule="evenodd" clip-rule="evenodd" d="M545.6 188.6c5.1-2 16.1.1 33 6.5 25.5 9.5 68 81 48.2 100.7-19.7 19.7-31.4 21.8-35.4 42-2.6 13.4.6 83 0 84l-56-28.1c6.8-14 21.5-77.6 20.2-81.4-1.9-5.8-60.4-52.4-44.4-72.5a435.2 435.2 0 0034.4-51.2z" fill="#F1BE91"/><path d="M534.3 1164.9v14.6s0 3.4 2.2 12.4c2.3 9 28.2 55.1 31.6 61.9 3.3 6.8 5.6 9 20.2 11.3 14.7 2.2 18 2.2 24.8 5.6 6.7 3.4 13.5 15.8 13.5 15.8h-38.3s-12.4-1.2-23.6-4.6c-11.3-3.3-39.4-65.3-39.4-65.3h-6.8v69.9h-7.9v-94.6c0-17 23.7-27 23.7-27z" fill="#008C5F"/><path d="M550 953.2a539.8 539.8 0 0014.7-46.1l63-9s3.4 73.1-5.6 95.6c-9 22.6-16.9 36-23.7 63-6.7 27.1-13.5 38.4-23.6 74.4-10.1 36-13.5 103.6-13.5 103.6l-12.4-67.6v-45l1.1-65.3v-44s-6.7-42.7 0-59.6z" fill="#F1BE91"/><path d="M564.7 1041v-90h-63v90c0 33.8-1.2 45 5.6 63 6.7 18 13.5 38.3 11.2 49.6-2.2 11.3-9 32.7-9 32.7s2.3 13.5 6.8 24.7c4.5 11.3 23.6 54 27 60.8 3.4 6.8 17.7 6.6 27 6.8 18.5.4-2.2-13.5-5.6-33.8-3.4-20.3-5.7-48.4-9-63-3.4-14.7 0-31.6 0-42.8 0-11.3 9-80 9-98z" fill="#FFCBA6"/><path d="M338.5 967.9c-19.2 0-29.3-11.3-28.2-22.6 1.2-11.2 45-95.7 71-143C407 755.2 528.7 584 528.7 584h76.6l55.1 127.2 28.2 84.4 42.8 150.9s-26 16.8-58.6 16.8-47.3-5.6-72 0a156 156 0 00-41.7 15.8s0 20.3-7.9 30.4c-7.8 10.1-22.5 20.3-47.2 22.5-24.8 2.3-89-16.9-103.6-16.9-14.6 0-5.6-31.5-5.6-31.5s-37.2-15.8-56.3-15.8z" fill="#FFBB4E"/><path d="M587.2 585c35 88.8 46.4 131 54 193.7M555.7 587.3v288.2M530.9 589.6c-38 67.1-52.5 99.3-66.4 147.5M394.7 980.2s20.2-36 28.1-57.4c8-21.4 18-60.8 18-60.8M559 978l-1-83.3M660.4 960s-13.5-30.4-13.5-55.2v-55.2" stroke="#DE8900" stroke-width="1.2"/><path d="M338.5 970.2c-19.2 0-28-10-28.2-22.5 0-12.5 6.7-21.5 6.7-21.5-.4 5.6 13.3 21 30.4 23.6 17.1 2.7 53 14.7 56.3 18a24.1 24.1 0 016.7 18.1c-1 9-2.2 12.4 5.7 15.8 7.9 3.4 49.6 12.7 63 14.6 15.8 2.3 41.7 0 47.3-5.6 5.6-5.6 16.9-20.3 14.6-34.9-2.2-14.6 28.2-21.4 37.2-22.5 9-1.1 43.9-10.1 59.6-7.9a203 203 0 0058.6-2.2c13.5-3.5 31.5-11.4 32.6-6.9a46 46 0 003.4 12.4s-27 17-59.6 17-47.3-5.7-72 0c-24.8 5.6-38.4 10.1-40.6 15.7-2.3 5.7-1 20.3-9 30.4a56 56 0 01-47.2 22.5c-24.8 2.3-83.4-14.6-100.3-18-16.9-5.6-11.4-24.7-11.3-30.4.1-5.6-34.8-15.7-54-15.7z" fill="#1F2F55"/><path d="M589.7 275.1c1.2-69.6-4.6-83.8-4.6-83.8-36.8-16.6-121.5 21.8-99.8 105 23.2 88.4-64.2 111.7 3.3 137.8 64.2 9.5 109.2-81.3 109.2-81.3l4.1 14.7s40.3-17.5-12.2-92.4z" fill="#141F39"/><path fill-rule="evenodd" clip-rule="evenodd" d="M577 373.4c-71.8-7-72.4 66.3-69.7 78.8 2.6 12.6 13.5 81-13.6 161 46.2-25.4 96.5-18 114.4-9.6 17.8 8.5 9.9-13.6 9-16.3 0 0-20.9-61.9-4-75.4 16.9-13.5 27-52.9 21.1-69.8-5.8-16.9-20-56.3-57.1-68.7z" fill="#00D28F"/><path fill-rule="evenodd" clip-rule="evenodd" d="M613.4 602.1c8.4-7 14.8-7.8 19.2-2.2a39.5 39.5 0 018.3 17.2l-27.5-15z" fill="#00D28F"/><path fill-rule="evenodd" clip-rule="evenodd" d="M618.2 599c-6.5 7.5-8.6 13.6-6.3 18.1 2.3 4.6 6 8.5 11.1 11.7l-4.8-29.9z" fill="#00D28F"/><path d="M526.6 591l119-19.4c10.6 3.7 21.4 19.5 37.7 16.8 8.5-1.4.4-10 21.4-10 21-.2 15.8-10.3 3.4-28-14.7-21-47.2-15.3-64.7-8-102.5-10.7-94.4-12-102.5-10.7 0 0 62-91 51.4-123.1-19.8-60.8-67-6.9-73.8 5.7-10.5 19.3-42 98.4-38 150.3 1.2 17.4 12.3 32 46.1 26.4z" fill="#F1BE91"/><path d="M525.3 241.3c6.7 3.7-1 9.4 6.5 8.7 7.6-.8 14.8-3.8 20.7-8.7 0 0 67.1 25.6 76.2-18 9.1-43.7-81-57.7-100-19.9-19.2 38-3.4 38-3.4 38z" fill="#141F39"/><path d="M514 1173.9v14.6s0 3.4 2.3 12.4c2.2 9 28.1 55.1 31.5 61.9 3.4 6.8 5.6 9 20.3 11.3 14.6 2.2 18 2.2 24.7 5.6 6.8 3.4 13.5 15.8 13.5 15.8h-38.2s-12.4-1.2-23.7-4.5c-11.2-3.4-39.4-65.3-39.4-65.3h-6.7v65.3h-8v-90.1c0-16.9 23.7-27 23.7-27z" fill="#00D28F"/></svg>
