<?xml version="1.0" standalone="no"?>
<!DOCTYPE svg PUBLIC "-//W3C//DTD SVG 20010904//EN"
 "http://www.w3.org/TR/2001/REC-SVG-20010904/DTD/svg10.dtd">
<svg version="1.0" xmlns="http://www.w3.org/2000/svg"
 width="296.000000pt" height="126.000000pt" viewBox="0 0 296.000000 126.000000"
 preserveAspectRatio="xMidYMid meet">
<metadata>
Created by potrace 1.10, written by Peter Selinger 2001-2011
</metadata>
<g transform="translate(0.000000,126.000000) scale(0.100000,-0.100000)"
fill="#000000" stroke="none">
<path d="M2238 1195 c-100 -20 -211 -82 -292 -164 l-68 -69 33 -16 34 -17 39
42 c131 140 322 197 501 150 96 -26 168 -68 240 -139 l53 -53 32 16 31 16 -38
42 c-62 69 -114 108 -198 148 -120 57 -232 71 -367 44z m207 -24 l40 -9 -35 0
c-19 0 -48 4 -65 8 -27 7 -28 8 -5 8 14 1 43 -3 65 -7z"/>
<path d="M2250 1034 c-30 -8 -74 -26 -99 -41 -45 -26 -121 -90 -121 -102 0 -4
14 -12 31 -18 29 -11 34 -10 78 26 64 54 130 76 221 76 92 0 157 -22 223 -77
45 -37 50 -39 77 -28 17 7 30 15 30 19 0 15 -78 81 -130 109 -94 52 -204 64
-310 36z m183 -22 c9 -4 -26 -8 -80 -8 -53 0 -88 3 -77 7 24 10 133 10 157 1z"/>
<path d="M295 881 c-37 -9 -91 -37 -100 -52 -4 -6 -2 -16 4 -22 7 -7 16 -6 29
6 28 25 34 21 19 -15 -8 -18 -17 -51 -21 -72 -4 -21 -17 -46 -28 -56 -18 -14
-19 -19 -7 -37 11 -18 9 -30 -10 -80 -29 -79 -29 -78 -1 -78 23 0 27 7 42 69
17 66 31 89 53 83 14 -5 23 -44 24 -104 2 -86 45 -113 92 -57 12 15 12 16 -6
11 -31 -10 -41 3 -49 62 -4 30 -12 64 -18 75 -8 15 -8 21 2 24 6 2 27 18 45
34 76 66 81 174 9 204 -36 15 -36 15 -79 5z m63 -37 c40 -28 28 -98 -26 -156
-29 -31 -40 -34 -66 -15 -17 12 -17 16 -2 67 8 30 17 69 20 85 2 17 5 31 5 33
3 8 50 -1 69 -14z"/>
<path d="M2239 862 c-29 -15 -54 -32 -56 -37 -1 -6 11 -18 28 -28 30 -17 33
-17 51 0 28 26 167 26 195 1 19 -17 21 -17 57 0 l38 19 -30 22 c-85 60 -195
69 -283 23z"/>
<path d="M1564 862 c-6 -4 -16 -20 -21 -37 -9 -27 -14 -30 -51 -28 -27 1 -42
-3 -46 -13 -6 -14 15 -19 63 -15 19 2 22 -1 16 -16 -4 -10 -12 -39 -17 -65 -7
-33 -21 -57 -49 -84 -21 -21 -42 -35 -46 -31 -4 4 -2 31 4 60 6 29 7 53 2 55
-5 2 -9 12 -9 22 0 22 -26 33 -48 21 -26 -14 -58 -52 -80 -97 -21 -41 -67 -81
-76 -65 -3 4 -1 25 5 45 16 57 8 100 -18 104 -12 2 -31 -6 -42 -17 -26 -26
-27 -26 -34 -1 -3 11 -14 20 -25 20 -10 0 -27 -9 -37 -20 -20 -23 -37 -26 -33
-7 3 12 -3 17 -21 17 -5 0 -11 -15 -15 -32 -7 -34 -71 -108 -93 -108 -17 0
-16 29 2 73 19 47 19 77 -1 77 -18 0 -44 -58 -44 -98 0 -34 -21 -55 -47 -50
-23 5 -23 61 1 108 20 42 20 42 -6 38 -27 -4 -47 -51 -47 -116 -1 -36 3 -44
25 -54 21 -10 31 -9 54 4 24 14 29 14 34 2 9 -23 35 -16 68 16 33 33 46 34 29
2 -16 -29 -14 -34 10 -30 17 2 25 15 34 53 13 51 60 104 76 88 5 -5 2 -34 -6
-66 -19 -72 -19 -77 0 -77 8 0 19 16 24 38 16 57 48 102 72 102 14 0 19 -5 16
-14 -16 -40 -28 -100 -23 -112 8 -21 59 -17 84 6 26 25 28 25 35 0 7 -26 37
-26 70 0 l26 21 11 -21 c16 -29 37 -25 77 18 19 20 33 32 29 25 -3 -6 -2 -23
4 -37 13 -35 52 -34 87 1 17 16 29 21 31 14 13 -38 62 -52 105 -30 32 16 97
81 97 96 0 21 -16 15 -34 -12 -9 -14 -34 -37 -55 -51 -32 -21 -43 -24 -60 -14
-30 16 -26 35 13 58 65 38 84 100 33 110 -22 4 -84 -53 -92 -86 -8 -31 -62
-81 -89 -82 -23 0 -19 35 17 135 l24 69 48 -3 c36 -2 46 1 43 11 -3 7 -23 14
-47 16 -41 3 -42 4 -36 32 6 29 -3 44 -21 32z m146 -170 c0 -18 -19 -40 -47
-56 -18 -10 -16 4 7 42 22 36 40 42 40 14z m-326 -37 c-2 -44 -46 -97 -65 -78
-14 14 -6 47 21 91 26 42 45 37 44 -13z"/>
<path d="M2014 815 c3 -9 6 -117 6 -240 l0 -224 149 -76 c137 -70 192 -107
179 -120 -3 -3 -25 5 -49 19 -24 13 -105 48 -179 77 -74 29 -136 54 -138 55
-2 1 -3 101 -2 222 1 231 0 232 -43 232 -11 0 -12 -130 -7 -482 0 -5 6 -8 13
-8 11 0 61 -18 275 -102 40 -15 80 -35 88 -43 22 -21 93 -19 118 4 22 19 58
34 249 105 l118 43 0 239 c0 131 0 243 -1 247 0 4 -9 3 -20 -3 -19 -10 -20
-23 -22 -231 l-3 -221 -95 -38 c-183 -73 -223 -90 -247 -106 -14 -8 -28 -13
-31 -9 -13 13 54 56 190 123 l136 67 4 240 c1 132 3 241 2 243 -1 1 -64 -29
-140 -67 -105 -53 -148 -81 -176 -113 -25 -28 -38 -37 -38 -27 0 29 -66 77
-193 142 -141 71 -152 76 -143 52z m310 -208 l39 -37 26 30 c23 26 239 150
262 150 5 0 9 -83 9 -185 l0 -185 -119 -60 c-90 -44 -128 -70 -152 -100 l-32
-40 -15 30 c-17 35 -43 52 -181 121 l-101 49 0 190 0 189 112 -57 c61 -31 130
-74 152 -95z"/>
<path d="M2100 661 c0 -15 22 -31 83 -63 45 -23 99 -58 120 -77 26 -24 37 -29
37 -18 0 30 -63 88 -134 123 -39 20 -75 39 -80 45 -16 15 -26 11 -26 -10z"/>
<path d="M2530 634 c-85 -43 -150 -99 -150 -130 0 -12 10 -7 38 18 20 18 74
51 119 73 66 32 82 44 83 63 0 12 -1 21 -2 21 -2 -1 -41 -21 -88 -45z"/>
<path d="M2100 552 c0 -12 26 -30 84 -59 46 -23 100 -56 120 -73 42 -37 50
-19 12 27 -20 24 -189 123 -210 123 -3 0 -6 -8 -6 -18z"/>
<path d="M2520 524 c-85 -45 -140 -92 -140 -119 0 -21 9 -19 31 9 11 14 62 46
114 72 68 34 95 52 95 66 0 10 -3 18 -7 17 -5 0 -46 -20 -93 -45z"/>
<path d="M2100 451 c0 -16 19 -30 80 -61 44 -22 98 -57 120 -76 22 -20 40 -30
40 -23 -1 22 -23 56 -50 77 -19 15 -135 79 -182 100 -5 2 -8 -6 -8 -17z"/>
<path d="M2533 426 c-82 -41 -153 -98 -153 -123 0 -19 18 -16 29 5 7 13 76 53
209 119 2 1 2 10 0 21 -3 18 -9 16 -85 -22z"/>
<path d="M646 734 c-9 -8 -16 -23 -16 -33 0 -23 -74 -107 -111 -126 -15 -8
-34 -12 -43 -9 -19 7 -30 38 -15 43 24 8 89 74 89 91 0 10 -7 24 -16 31 -36
30 -114 -53 -114 -121 0 -108 132 -81 210 43 l18 29 17 -52 c12 -35 14 -55 7
-62 -13 -13 -32 -2 -32 18 0 19 -29 18 -37 -2 -3 -9 3 -25 16 -37 20 -20 23
-21 49 -7 43 24 50 61 23 116 -20 42 -20 48 -6 64 26 29 -10 43 -39 14z m-139
-57 c-7 -11 -23 -27 -35 -35 -21 -14 -22 -13 -16 4 10 28 45 64 56 58 5 -3 3
-15 -5 -27z"/>
</g>
</svg>
